<svg width="20" height="20" viewBox="0 0 20 20" fill="none" xmlns="http://www.w3.org/2000/svg">
<path fill-rule="evenodd" clip-rule="evenodd" d="M10.971 1.99999H17.294C17.3871 2.00039 17.4792 2.01912 17.5651 2.05511C17.651 2.0911 17.7289 2.14366 17.7944 2.20978C17.86 2.27589 17.9119 2.35427 17.9472 2.44044C17.9824 2.52661 18.0004 2.61889 18 2.71199L17.982 9.01199C17.9817 9.20209 17.9062 9.38434 17.772 9.51899L9.51899 17.789C9.45244 17.856 9.37329 17.9092 9.28611 17.9455C9.19892 17.9817 9.10542 18.0004 9.01099 18.0004C8.91655 18.0004 8.82305 17.9817 8.73587 17.9455C8.64868 17.9092 8.56954 17.856 8.50299 17.789L2.20999 11.481C2.07528 11.3458 1.99963 11.1628 1.99963 10.972C1.99963 10.7812 2.07528 10.5981 2.20999 10.463L10.461 2.19299C10.5288 2.12834 10.6088 2.07794 10.6964 2.04479C10.784 2.01164 10.8774 1.99641 10.971 1.99999ZM15 5.99999C15.1978 5.99999 15.3911 5.94135 15.5556 5.83146C15.72 5.72158 15.8482 5.5654 15.9239 5.38268C15.9996 5.19995 16.0194 4.99889 15.9808 4.8049C15.9422 4.61092 15.8469 4.43274 15.7071 4.29289C15.5672 4.15304 15.3891 4.05779 15.1951 4.01921C15.0011 3.98062 14.8 4.00043 14.6173 4.07612C14.4346 4.1518 14.2784 4.27998 14.1685 4.44442C14.0586 4.60887 14 4.80221 14 4.99999C14 5.26521 14.1053 5.51956 14.2929 5.7071C14.4804 5.89464 14.7348 5.99999 15 5.99999Z" fill="rgba(55,55,55,.7)"/>
</svg>
