<svg width="20" height="20" viewBox="0 0 20 20" fill="none" xmlns="http://www.w3.org/2000/svg">
<path fill-rule="evenodd" clip-rule="evenodd" d="M13.335 2.111C15.2002 2.425 16.8939 3.38973 18.1153 4.83397C19.3368 6.27821 20.007 8.10851 20.007 10C20.007 11.8915 19.3368 13.7218 18.1153 15.166C16.8939 16.6103 15.2002 17.575 13.335 17.889C14.7485 17.1129 15.9276 15.9712 16.7488 14.5834C17.57 13.1956 18.0033 11.6126 18.0033 10C18.0033 8.38741 17.57 6.80444 16.7488 5.41663C15.9276 4.02881 14.7485 2.88714 13.335 2.111ZM9 2C10.5823 2 12.129 2.46919 13.4446 3.34824C14.7602 4.22729 15.7855 5.47672 16.391 6.93853C16.9965 8.40034 17.155 10.0089 16.8463 11.5607C16.5376 13.1126 15.7757 14.538 14.6569 15.6569C13.538 16.7757 12.1126 17.5376 10.5607 17.8463C9.00887 18.155 7.40034 17.9965 5.93853 17.391C4.47672 16.7855 3.22729 15.7602 2.34824 14.4446C1.46919 13.129 1 11.5823 1 10C1 7.87827 1.84285 5.84344 3.34315 4.34315C4.84344 2.84285 6.87827 2 9 2ZM10 13V7H8L7 9H8V13H10Z" fill="rgba(55,55,55,.7)"/>
</svg>
