<svg width="42" height="40" viewBox="0 0 42 40" fill="none" xmlns="http://www.w3.org/2000/svg">
<g id="icon-repayment">
<g id="Group" filter="url(#filter0_d_6874_7134)">
<path id="Path_540-2" opacity="0.95" fill-rule="evenodd" clip-rule="evenodd" d="M6.625 8.375H9.25V9C9.25 9.89511 9.60558 10.7536 10.2385 11.3865C10.8714 12.0194 11.7299 12.375 12.625 12.375C13.5201 12.375 14.3785 12.0194 15.0115 11.3865C15.6444 10.7536 16 9.89511 16 9V8.375H26.25V9C26.25 9.89511 26.6056 10.7536 27.2385 11.3865C27.8714 12.0194 28.7299 12.375 29.625 12.375C30.5201 12.375 31.3786 12.0194 32.0115 11.3865C32.6444 10.7536 33 9.89511 33 9V8.375H35.625C36.3212 8.375 36.9889 8.65156 37.4812 9.14384C37.9734 9.63613 38.25 10.3038 38.25 11V33C38.25 33.6962 37.9734 34.3639 37.4812 34.8562C36.9889 35.3484 36.3212 35.625 35.625 35.625H6.625C5.92881 35.625 5.26113 35.3484 4.76884 34.8562C4.27656 34.3639 4 33.6962 4 33V11C4 10.3038 4.27656 9.63613 4.76884 9.14384C5.26113 8.65156 5.92881 8.375 6.625 8.375ZM10 7C10 6.30381 10.2766 5.63613 10.7688 5.14384C11.2611 4.65156 11.9288 4.375 12.625 4.375C13.3212 4.375 13.9889 4.65156 14.4812 5.14384C14.9734 5.63613 15.25 6.30381 15.25 7V9C15.25 9.69619 14.9734 10.3639 14.4812 10.8562C13.9889 11.3484 13.3212 11.625 12.625 11.625C11.9288 11.625 11.2611 11.3484 10.7688 10.8562C10.2766 10.3639 10 9.69619 10 9V7ZM27 7C27 6.30381 27.2766 5.63613 27.7688 5.14384C28.2611 4.65156 28.9288 4.375 29.625 4.375C30.3212 4.375 30.9889 4.65156 31.4812 5.14384C31.9734 5.63613 32.25 6.30381 32.25 7V9C32.25 9.69619 31.9734 10.3639 31.4812 10.8562C30.9889 11.3484 30.3212 11.625 29.625 11.625C28.9288 11.625 28.2611 11.3484 27.7688 10.8562C27.2766 10.3639 27 9.69619 27 9V7Z" fill="#DE1F26" stroke="white"/>
</g>
<path id="Path_541" d="M8.625 15C8.09457 15 7.58586 15.2107 7.21079 15.5858C6.83571 15.9609 6.625 16.4696 6.625 17V31C6.625 31.5304 6.83571 32.0391 7.21079 32.4142C7.58586 32.7893 8.09457 33 8.625 33H33.625C34.1554 33 34.6641 32.7893 35.0392 32.4142C35.4143 32.0391 35.625 31.5304 35.625 31V17C35.625 16.4696 35.4143 15.9609 35.0392 15.5858C34.6641 15.2107 34.1554 15 33.625 15H8.625Z" fill="white"/>
<g id="Group 10992">
<path id="Path_542" d="M26.1502 24.029C26.1947 23.2297 25.9458 22.4417 25.4502 21.813C25.2154 21.5429 24.9225 21.3295 24.5934 21.1887C24.2644 21.0479 23.9077 20.9834 23.5502 21C23.1986 20.9805 22.8471 21.0412 22.5223 21.1773C22.1975 21.3135 21.9079 21.5216 21.6752 21.786C21.1915 22.4309 20.9545 23.2276 21.0072 24.032C20.9637 24.834 21.2065 25.6254 21.6922 26.265C21.9174 26.5365 22.2022 26.7524 22.5245 26.8957C22.8468 27.0389 23.1978 27.1058 23.5502 27.091C23.9103 27.1126 24.2706 27.0518 24.6037 26.9132C24.9367 26.7745 25.2338 26.5617 25.4722 26.291C25.9605 25.643 26.201 24.8418 26.1502 24.032V24.029ZM31.1202 21.137H29.0932L23.5642 30.837H25.5892L31.1202 21.137ZM33.7322 27.891C33.7767 27.0917 33.5278 26.3037 33.0322 25.675C32.7977 25.4044 32.5049 25.1904 32.1758 25.0491C31.8468 24.9078 31.49 24.8428 31.1322 24.859C30.7806 24.8395 30.4291 24.9002 30.1043 25.0363C29.7795 25.1725 29.4899 25.3806 29.2572 25.645C28.7735 26.2899 28.5365 27.0866 28.5892 27.891C28.5462 28.6908 28.789 29.4798 29.2742 30.117C29.4992 30.3887 29.784 30.6047 30.1063 30.748C30.4287 30.8913 30.7798 30.958 31.1322 30.943C31.4918 30.9639 31.8514 30.9027 32.1839 30.7641C32.5163 30.6255 32.8129 30.4131 33.0512 30.143C33.5397 29.4978 33.7803 28.6987 33.7292 27.891H33.7322Z" fill="#DE1F26"/>
<path id="Vector" fill-rule="evenodd" clip-rule="evenodd" d="M21 16V19.1026C17.5037 19.1026 14.6152 21.9282 14.5592 25.3111H16.2278C16.664 25.3111 17.0177 25.654 17.0177 26.077C17.0177 26.2428 16.9622 26.4042 16.8595 26.5368L13.6406 30.6939C13.3786 31.0322 12.8835 31.1005 12.5346 30.8465C12.475 30.8031 12.422 30.7517 12.3772 30.6939L9.15827 26.5368C8.89634 26.1986 8.96682 25.7185 9.31569 25.4645C9.45248 25.3649 9.61891 25.3111 9.78996 25.3111H11.3963C11.4518 20.2153 15.7384 16 21 16Z" fill="#DD282E"/>
<path id="Path_543" d="M23.0602 24.056C23.0433 23.6866 23.0859 23.3169 23.1862 22.961C23.2702 22.731 23.4008 22.616 23.5782 22.616C23.7555 22.616 23.8838 22.7287 23.9632 22.954C24.0641 23.3115 24.1066 23.683 24.0892 24.054C24.1077 24.4278 24.0652 24.802 23.9632 25.162C23.8792 25.3834 23.7508 25.494 23.5782 25.494C23.4055 25.494 23.2762 25.381 23.1902 25.155C23.0862 24.7995 23.0423 24.429 23.0602 24.059V24.056ZM30.6402 27.917C30.6235 27.5479 30.6664 27.1785 30.7672 26.823C30.8512 26.593 30.9818 26.478 31.1592 26.478C31.3592 26.478 31.4892 26.608 31.5652 26.866C31.7141 27.5581 31.7141 28.2739 31.5652 28.966C31.4902 29.226 31.3552 29.355 31.1592 29.355C30.9862 29.355 30.8592 29.242 30.7702 29.016C30.6663 28.6591 30.6224 28.2884 30.6402 27.917Z" fill="white"/>
</g>
</g>
<defs>
<filter id="filter0_d_6874_7134" x="0.5" y="0.875" width="41.25" height="38.25" filterUnits="userSpaceOnUse" color-interpolation-filters="sRGB">
<feFlood flood-opacity="0" result="BackgroundImageFix"/>
<feColorMatrix in="SourceAlpha" type="matrix" values="0 0 0 0 0 0 0 0 0 0 0 0 0 0 0 0 0 0 127 0" result="hardAlpha"/>
<feOffset/>
<feGaussianBlur stdDeviation="1.5"/>
<feColorMatrix type="matrix" values="0 0 0 0 0 0 0 0 0 0 0 0 0 0 0 0 0 0 0.212 0"/>
<feBlend mode="normal" in2="BackgroundImageFix" result="effect1_dropShadow_6874_7134"/>
<feBlend mode="normal" in="SourceGraphic" in2="effect1_dropShadow_6874_7134" result="shape"/>
</filter>
</defs>
</svg>
