<svg xmlns="http://www.w3.org/2000/svg" xmlns:xlink="http://www.w3.org/1999/xlink" width="42" height="38" viewBox="0 0 42 38">
    <defs>
        <rect id="a" width="20" height="12" rx="1.391"/>
        <filter id="b" width="130%" height="150%" x="-15%" y="-25%" filterUnits="objectBoundingBox">
            <feOffset in="SourceAlpha" result="shadowOffsetOuter1"/>
            <feGaussianBlur in="shadowOffsetOuter1" result="shadowBlurOuter1" stdDeviation="1"/>
            <feColorMatrix in="shadowBlurOuter1" values="0 0 0 0 0 0 0 0 0 0 0 0 0 0 0 0 0 0 0.0564990942 0"/>
        </filter>
    </defs>
    <g fill="none" fill-rule="evenodd">
        <path fill="#FFF" fill-rule="nonzero" d="M2 0h38a2 2 0 0 1 2 2v34a2 2 0 0 1-2 2H2a2 2 0 0 1-2-2V2a2 2 0 0 1 2-2z"/>
        <path fill="#000" fill-opacity=".87" d="M4.58 22.598l.075.334h.026l.083-.334 1.095-3.353h.883L4.992 24h-.654l-1.77-4.755h.887l1.125 3.353zm4.394-.36l.154.597h.027l1.168-3.59h.963l-2 5.484c-.12.32-.292.598-.516.835-.224.238-.527.356-.907.356a2.794 2.794 0 0 1-.519-.07l.088-.681a1.16 1.16 0 0 1 .156.009c.121.009.198.013.23.013a.535.535 0 0 0 .453-.246c.117-.164.216-.346.295-.545l.206-.497-1.766-4.658h.966l1.002 2.993zm5.322-2.228l-.444-.027a.991.991 0 0 0-.578.163c-.156.108-.277.26-.362.457V24h-.866v-4.755h.774l.083.694a1.65 1.65 0 0 1 .499-.575c.198-.138.425-.207.683-.207a1.07 1.07 0 0 1 .33.049l-.119.804zm.545 1.569c0-.704.19-1.283.571-1.738.381-.456.898-.684 1.552-.684.659 0 1.18.227 1.562.681.382.454.573 1.035.573 1.74v.097c0 .71-.19 1.29-.57 1.74-.382.452-.9.677-1.557.677-.656 0-1.175-.226-1.557-.679-.383-.452-.574-1.032-.574-1.738v-.096zm.866.096c0 .504.106.92.318 1.248.213.328.528.493.947.493.414 0 .727-.165.94-.493.215-.328.322-.744.322-1.248v-.096c0-.498-.108-.913-.323-1.244-.216-.331-.531-.497-.947-.497-.413 0-.726.166-.939.497-.212.331-.318.746-.318 1.244v.096zm8.512.128c0 .685-.165 1.238-.494 1.659-.33.42-.783.63-1.36.63-.314 0-.586-.06-.818-.182a1.52 1.52 0 0 1-.576-.538l-.105.628h-.708v-6.855h.866v2.663c.15-.211.335-.372.556-.484.221-.111.48-.167.776-.167.586 0 1.043.235 1.37.703.329.47.493 1.086.493 1.85v.093zm-.866-.093c0-.544-.1-.99-.3-1.333-.201-.345-.507-.517-.917-.517-.267 0-.491.066-.675.196a1.38 1.38 0 0 0-.437.525v2.061c.111.234.257.418.437.55.18.131.408.197.684.197.407 0 .71-.145.91-.435.199-.29.298-.674.298-1.151v-.093zm3.894 2.382c-.662 0-1.189-.22-1.58-.661-.391-.441-.587-1.013-.587-1.716v-.194c0-.676.202-1.24.605-1.69.402-.449.88-.674 1.43-.674.642 0 1.126.194 1.455.58.328.387.492.903.492 1.547v.54h-3.085l-.013.023c.008.457.124.832.347 1.127.222.294.534.442.936.442.293 0 .55-.042.771-.126.221-.083.412-.198.574-.345l.338.563c-.17.167-.394.306-.672.417-.279.112-.616.167-1.011.167zm-.132-4.254c-.29 0-.538.123-.743.367-.205.245-.33.552-.378.921l.01.022h2.192v-.114c0-.34-.09-.624-.272-.853-.182-.228-.452-.343-.809-.343zm3.691-.593l.062.708c.158-.252.357-.448.595-.587.24-.14.51-.209.816-.209.512 0 .91.15 1.19.45.282.301.422.765.422 1.392V24h-.865v-2.984c0-.419-.083-.716-.249-.892-.165-.176-.418-.264-.758-.264-.249 0-.47.06-.661.18-.192.12-.345.285-.46.493V24h-.865v-4.755h.773zm4.14 2.334c0-.704.19-1.283.571-1.738.381-.456.898-.684 1.552-.684.659 0 1.18.227 1.562.681.382.454.573 1.035.573 1.74v.097c0 .71-.19 1.29-.57 1.74-.382.452-.9.677-1.557.677-.656 0-1.175-.226-1.557-.679-.383-.452-.574-1.032-.574-1.738v-.096zm.866.096c0 .504.106.92.318 1.248.213.328.528.493.947.493.413 0 .727-.165.94-.493.215-.328.322-.744.322-1.248v-.096c0-.498-.108-.913-.323-1.244-.216-.331-.531-.497-.947-.497-.413 0-.726.166-.939.497-.212.331-.318.746-.318 1.244v.096zM13.905 32.04l.088.505.026.005.097-.51.628-2.795h1.56L14.758 34H13.25l-1.547-4.755h1.565l.637 2.795zm10.151-.286l.01.027c-.03.75-.252 1.323-.667 1.718-.414.396-1.015.593-1.804.593-.79 0-1.434-.243-1.929-.73-.495-.486-.742-1.117-.742-1.893v-1.336c0-.774.238-1.404.714-1.892s1.095-.732 1.856-.732c.809 0 1.427.204 1.855.611.428.407.67.986.725 1.736l-.009.026H22.62c-.02-.416-.113-.725-.279-.927-.165-.202-.447-.303-.846-.303a.925.925 0 0 0-.795.406c-.193.271-.29.627-.29 1.066v1.345c0 .442.105.8.316 1.072.211.272.501.409.87.409.358 0 .611-.096.76-.286.15-.19.235-.494.256-.91h1.445zm-2.535-5.585l.448-.51h1.358v.07l-1.283 1.143h-1.05L19.7 25.721v-.062h1.372l.448.51zm4.825 5.379V34h-1.49v-6.398h2.461c.741 0 1.329.17 1.762.514.434.342.65.811.65 1.406a1.4 1.4 0 0 1-.26.853c-.175.237-.432.43-.772.58.393.11.675.296.846.555.171.26.257.583.257.97v.404c0 .167.025.357.075.571.05.214.136.366.259.457V34h-1.53c-.116-.09-.193-.252-.23-.483a4.126 4.126 0 0 1-.055-.642v-.387c0-.304-.08-.537-.242-.698-.16-.162-.397-.242-.707-.242h-1.024zm0-1.143h.98c.299 0 .527-.068.685-.204.159-.136.238-.332.238-.587 0-.26-.082-.47-.244-.63-.163-.16-.392-.24-.688-.24h-.971v1.661z"/>
        <g transform="translate(11 3)">
            <mask id="c" fill="#fff">
                <use xlink:href="#a"/>
            </mask>
            <g fill-rule="nonzero">
                <use fill="#000" filter="url(#b)" xlink:href="#a"/>
                <use fill="#FFF" xlink:href="#a"/>
            </g>
            <g fill-rule="nonzero" mask="url(#c)">
                <path fill="#E80000" d="M-.174 5.829H20v7.542H-.174z"/>
                <path fill="#FFF" d="M-.174-1.714H20v7.543H-.174z"/>
                <path fill="#00006F" d="M-.87-1.714L10.1 5.839-.87 13.382z"/>
            </g>
        </g>
    </g>
</svg>
