<svg xmlns="http://www.w3.org/2000/svg" width="36" height="36" viewBox="0 0 36 36">
    <g fill="none" fill-rule="evenodd">
        <g>
            <g>
                <path fill="#248CBA" d="M25.83 33.75H10.17C4.58 33.75 0 28.91 0 23v2.25C0 31.16 4.58 36 10.17 36h15.66C31.42 36 36 31.16 36 25.25V23c0 5.91-4.58 10.75-10.17 10.75" transform="translate(-276 -1996) translate(276 1996)"/>
                <path fill="#2EB3FD" d="M25.83 0H10.17C4.573 0 .028 4.523 0 10.12v13.76C.028 29.477 4.573 34 10.17 34h15.66c5.597 0 10.142-4.523 10.17-10.12V10.12C35.972 4.523 31.427 0 25.83 0" transform="translate(-276 -1996) translate(276 1996)"/>
                <path fill="#FFF" d="M7.68 11.47L8.87 14c.62 1.296 1.15 2.632 1.59 4v-.49c.03-.604.1-1.205.21-1.8l.69-4.2 2.51-.04-1.8 11.06H9.72l-2.06-4.25c-.45-.878-.809-1.799-1.07-2.75v.38c-.01.402-.05.804-.12 1.2l-.88 5.42H3l1.78-11.06h2.9zm15.74 0L23 13.89h-4.56l-.28 1.74h3.89l-.4 2.4h-3.88l-.31 2 4.82-.03-.41 2.53h-8l1.8-11.06h7.75zm8.33 1.29c.847.917 1.297 2.132 1.25 3.38.053 1.629-.452 3.227-1.43 4.53-.859 1.183-2.238 1.876-3.7 1.86h-.09c-1.145.018-2.25-.42-3.07-1.22-.912-.929-1.388-2.2-1.31-3.5-.042-1.623.473-3.211 1.46-4.5.895-1.191 2.31-1.877 3.8-1.84 1.17-.043 2.298.429 3.09 1.29zm-3.22 1.16c-.74 0-1.27.55-1.57 1.64-.274.947-.425 1.925-.45 2.91 0 1.07.42 1.61 1.27 1.61l.08.01c.48.004.92-.263 1.14-.69.329-.623.542-1.3.63-2 .112-.608.178-1.223.2-1.84.04-.438-.09-.874-.36-1.22-.232-.278-.579-.433-.94-.42z" transform="translate(-276 -1996) translate(276 1996)"/>
            </g>
        </g>
    </g>
</svg>
