<svg width="20" height="20" viewBox="0 0 20 20" fill="none" xmlns="http://www.w3.org/2000/svg">
<g id="icon-alzaplus">
<path id="Subtract" fill-rule="evenodd" clip-rule="evenodd" d="M5.6481 2.71281e-10H14.3519C15.8452 0.00135708 17.2774 0.628377 18.3356 1.74414C19.3938 2.8599 19.9922 4.37375 20 5.95511V14.0501C19.9922 15.631 19.3937 17.1443 18.3353 18.2592C17.2769 19.3742 15.8448 20 14.3519 20H5.6481C4.15485 20.0014 2.72194 19.376 1.66328 18.2607C0.604621 17.1455 0.00652019 15.6314 0 14.0501V5.95511C0.00651706 4.37332 0.604459 2.85868 1.66298 1.74262C2.7215 0.626563 4.15439 -1.50544e-05 5.6481 2.71281e-10ZM17.3803 7.66516L17.5724 6.53497L16.5566 6.5L16.3657 7.66516H15.2381L15.0923 8.63744L16.1962 8.66451L15.9974 9.83643H17.0447L17.2583 8.66789H18.3328L18.5 7.66516H17.3803ZM3.65584 8.99838L3.54964 9.59505C3.88295 9.06605 4.13151 8.90025 4.60041 8.90025C5.38002 8.90025 5.87829 9.51948 5.87829 10.4929C5.87829 11.0817 5.69638 11.6705 5.37098 12.1239C5.04558 12.5773 4.62979 12.8029 4.1157 12.8029C3.67731 12.8029 3.43552 12.6664 3.18582 12.2818L2.91566 14H2.20728H1.49999L2.32373 8.99725H3.65471L3.65584 8.99838ZM3.35304 11.4528C3.35304 11.7325 3.50444 11.9062 3.73832 11.9062C4.00271 11.9062 4.15411 11.7178 4.26823 11.2644C4.35184 10.917 4.40381 10.5696 4.40381 10.3812C4.40381 10.0259 4.26823 9.83756 4.00271 9.83756C3.76092 9.83756 3.63211 9.96615 3.51122 10.344C3.42083 10.8493 3.35191 11.2949 3.35191 11.4539L3.35304 11.4528ZM5.82631 12.7206H7.2409L8.0883 7.68433H6.67371L5.82631 12.7206ZM11.3254 12.7206H9.97856L10.0995 12.0258C9.75937 12.592 9.39668 12.8187 8.85209 12.8187C8.2623 12.8187 7.8386 12.4487 7.8386 11.9355C7.8386 11.8295 7.8691 11.5881 7.9143 11.3242L8.29958 8.99838H9.73677L9.37408 11.1279C9.3368 11.3546 9.32889 11.4302 9.32889 11.4979C9.32889 11.6795 9.41928 11.7697 9.5865 11.7697C9.90399 11.7697 10.1164 11.4607 10.2215 10.8414L10.5322 8.9995H11.9468L11.3265 12.7217L11.3254 12.7206ZM13.7467 9.7383C14.1252 9.7383 14.3444 9.8511 14.4506 10.1004V10.0992L15.5477 9.85786C15.4268 9.55558 15.2901 9.39767 14.9805 9.21607C14.6246 9.00514 14.2235 8.90701 13.7399 8.90701C12.6959 8.90701 12.0225 9.42022 12.0225 10.2132C12.0225 10.5831 12.1886 10.8629 12.5366 11.0896C12.7716 11.2407 12.9456 11.2937 13.8529 11.49C14.0201 11.5272 14.1105 11.596 14.1105 11.6862C14.1105 11.8227 13.9139 11.9209 13.619 11.9209C13.1806 11.9209 12.9535 11.8069 12.8326 11.5204L11.6677 11.6862C11.7739 12.0641 11.9016 12.2457 12.1818 12.4341C12.5445 12.6833 13.0134 12.804 13.6032 12.804C14.1557 12.804 14.6087 12.6912 14.9342 12.4645C15.2663 12.2457 15.4708 11.8599 15.4708 11.4753C15.4708 11.0377 15.237 10.7049 14.7907 10.494C14.6246 10.4106 14.1184 10.2831 13.7399 10.2222C13.4823 10.1771 13.3614 10.0936 13.3614 9.96502C13.3614 9.82854 13.5117 9.7383 13.7467 9.7383Z" fill="#FF7900"/>
</g>
</svg>
